<svg version="1.1" id="Capa_1" xmlns="http://www.w3.org/2000/svg" x="0" y="0" viewBox="0 0 612 338.26" xml:space="preserve"><style>.st1{fill-rule:evenodd;clip-rule:evenodd;fill:#333326}</style><path d="M353.79 75.18c-.79 2.6-1.73 5.17-2.74 7.69-.92 2.32-2.04 4.54-3.69 6.43-1.62 1.86-3.58 3.36-5.46 4.92-1.99 1.66-3.02 4.23-4.81 6.11-1.71 1.79-4.23 2.71-6.32 4.01-2.02 1.26-3.84 2.94-6.09 3.71-4.64 1.57-9.5 3.23-14.31 4.12-4.93.91-10.76-.47-15.71-1.04-4.84-.55-9.41-2.53-13.6-5.11-4.92-3.02-9.94-6.54-13.38-11.29-3.18-4.4-5.31-9.55-7.37-14.5-1-2.42-1.58-4.97-1.92-7.57-.35-2.79-1.41-4.83-1.85-7.6-1.3-8.18.73-15.29 3.99-22.97.99-2.32 1.95-4.68 3.18-6.88 1.21-2.18 2.72-4.12 4.59-5.74 1.87-1.61 3.96-2.95 5.83-4.55 1.9-1.62 3.46-3.6 5.35-5.23 1.85-1.6 3.99-2.59 6.34-3.24 2.46-.68 4.99-1.04 7.44-1.81 2.53-.81 4.97-1.88 7.56-2.51 5.29-1.33 10.77-.47 15.96.92 5.19 1.4 10.38 3.09 14.99 5.93 2.32 1.42 4.49 3.06 6.64 4.71 10.51 8.07 14.37 22.21 16.31 34.9.86 5.61.72 11.15-.93 16.59zM306.11 8.89c-29.49 0-53.39 24.18-53.39 54.01s23.9 54.01 53.39 54.01c29.48 0 53.38-24.18 53.38-54.01s-23.9-54.01-53.38-54.01zm12.96 13.7c-4.57-1.15-12.96-1.55-13.72-1.55-1.15 0-2.29 0-2.67.39-1.14.38-1.53 1.54-1.53 2.31l5.34 31.64c3.05-2.32 5.34-9.26 7.62-13.5.39-1.16 7.24-13.12 7.24-16.21 0-1.15 0-1.15-.38-1.54-.38-.77-1.14-1.54-1.9-1.54zm-16.21 33.3c-2.29-11.19-1.9-21.22-6.86-32.03-2.29 0-4.96 0-6.48 1.16-1.53.77-11.06 5.79-11.06 9.26 0 1.16 17.54 17.37 24.03 22.76.75-.76.37-1.15.37-1.15zm-25.36-17.4c-1.14-.77-2.67-.77-3.81-.77-4.2 4.63-6.49 12.73-6.49 18.14 0 5.4 5.72 5.01 9.92 5.01 1.14 0 6.86-.38 9.91-.76h13.73v-1.16c-7.62-6.56-15.63-13.89-23.26-20.46zm22.23 23.15c.39.03.74.03 1.08-.1-.23.06-.49.1-.81.1h-.27zm-.3 1.92c-1.53 0-3.81-.38-4.96-.38l-16.78 1.55h-6.11c-2.67 0-4.96.76-4.96 4.63 0 1.93 3.82 19.29 11.06 19.29.76 0 1.14 0 1.53-.39 5.34-6.17 10.3-12.73 15.63-18.13 1.53-1.93 4.96-4.64 4.96-5.79.01-.78.01-.39-.37-.78zm4.77 35.21l-.38-31.63c-1.15.38-1.53.38-1.91.77-5.34 6.94-11.05 13.88-16.78 20.83-1.15 1.55-3.05 4.24-3.05 5.02 0 5.79 15.25 9.65 17.92 9.65 2.29 0 4.2-1.93 4.2-4.64zm3.63-31.82h-1.14v15.82c0 .77.38 11.58 1.53 16.97.38 1.15 4.19 2.7 5.72 2.7 3.05 0 12.2-3.47 12.2-8.48 0-1.16-.76-3.47-1.91-4.64-5.34-7.32-9.54-15.81-16.4-22.37zm23.25-38.39c-1.53-1.15-3.43-2.7-4.19-2.7-1.15 0-2.29 1.55-2.68 2.32-4.19 9.64-14.49 28.55-14.49 29.32 0 1.16 3.82-.77 8.01-3.09 6.87-3.85 14.49-7.33 20.97-11.18.39-.39.39-.77.39-1.93 0-3.86-3.05-8.11-8.01-12.74zm15.64 33.57c0-4.24-1.53-12.35-6.1-15.05l-28.98 14.66L341 67.53c4.58-.77 5.72-1.55 5.72-5.4zm-22.5 5.4c-4.19-1.16-8.77-1.93-12.96-3.08-.38.38-.38-.39-.38.77 0 .77 12.58 16.58 19.06 24.3.38.77 1.53 1.15 2.29 1.15 3.05 0 11.82-11.95 11.82-14.27 0-5.78-8.39-5.78-10.68-6.56-3.05-.76-6.48-1.54-9.15-2.31z" fill-rule="evenodd" clip-rule="evenodd" fill="#d9d900"/><path class="st1" d="M324.72 120.44c-.7-2.9.78-4.52 2.66-5.81 1.81-1.24 3.75-2.3 5.65-3.4 1.44-.83 2.68-1.81 3.24-3.49.25-.72.72-1.37 1.08-2.03l-1.8-2.23c1.4-.67 1.72 1.5 3.09.81l-2.31-3.22c.4-.81.79-1.53 1.13-2.28.29-.64.84-.67 1.23-.32.62.55 1.08 1.27 1.62 1.91.3.36.61.69 1.03 1.17l1.04-2.4.42.02c0 .62.06 1.24-.01 1.85-.37 3.47-2.22 6.27-4.08 9.06-2.3 3.46-4.61 6.92-6.95 10.35-1.9 2.8-4.21 5.13-7.61 5.95-3.45.83-6.96.88-10.62.55l.83-1.55-.23-.25c-.41.41-.83.82-1.25 1.22-1.14 1.08-2.19 2.28-3.45 3.19-1.07.79-2.41.75-3.7.35-.28-.09-.58-.08-.87-.11l-.13.39 3.55 1.57-3.23 11.53c1.94-.32 3.6-.59 5.25-.87 4.9-.82 9.79-1.25 14.63.3 2.35.75 3.68 2.84 3.09 5.28-.52 2.15-1.16 4.31-2.1 6.3-2.49 5.27-5.17 10.45-7.77 15.66-.65 1.32-.83 2.87 1.22 3.53 1.69.54 3.32 1.26 4.94 2 .36.16.55.72.81 1.1-.31.2-.62.55-.94.57-1.94.08-3.88.07-5.82.09-1.9.02-3.8.05-5.7.06-.58 0-1.17.03-1.73-.08-1.45-.3-1.7-.94-1.12-2.32 1.13-2.69 2.29-5.37 3.26-8.11.42-1.19.59-2.54.57-3.81-.06-3.28.41-6.32 2.72-8.83.3-.33.45-.79.68-1.19l-.17-.33c-.83.3-1.7.51-2.47.91-2.93 1.49-6.01 2.26-9.3 2.14-.19 0-.37.05-.72.1.44 1.87.93 3.67 1.28 5.5.7 3.64 1.24 7.32.17 10.96-.64 2.16-1.92 3.87-4.43 4-1.43.08-2.85.11-4.28.11-10.88.01-21.76 0-32.64 0h-1.14c.26-1.83 1.66-2.39 2.96-2.85 2.19-.77 4.14-1.85 5.81-3.5 1.42-1.41 2.94-.7 4.39 0 .69.34 1.37.74 1.97 1.23 1.17.95 2.45.9 3.74.48 2.97-.97 5.9-2.09 8.9-3 1.34-.41 2.78-.49 4.49-.76-.51-1.13-.96-2.26-1.52-3.32-1.68-3.15-3.36-6.31-5.15-9.41-1.28-2.23-1.74-4.58-1.56-7.1.17-2.27 1.07-4.2 2.59-5.88.3-.33.51-.85.55-1.3.38-4.56-.67-8.85-2.37-13.05-.49-1.2-.59-2.56-.92-4.08 1.77.17 3.15.55 4.25 1.72 1.11 1.18 2.16 2.42 3.39 3.45.96.8 2.21.7 3.42.29-.32-.08-.64-.17-.97-.23-1.27-.25-2.4-.83-3.01-1.98-1.65-3.1-4.47-4.12-7.61-4.31-3.51-.21-6.91-.85-10.26-1.83-2.73-.8-4.76-2.55-6.1-5.02-2.57-4.75-5.09-9.54-7.56-14.35-1.32-2.58-1.88-5.95-1.61-8.82l1.34 2.45c.75-.84 1.3-1.66 2.04-2.25.61-.48 1.22-.57 1.62.56.7 1.97.81 1.91-.66 3.39-.34.35-.58.8-.71 1.45l2.48-1.09.25.26-1.83 2.17c1.33 2.62 3.45 4.66 5.85 6.45 1.79 1.34 3.75 2.53 4.68 4.71.39.92.62 1.9.96 2.96 3.33-3.06 6.78-1.38 10.36-.39l-.67 1.08c1.15-.55 2.21-1.12 3.31-1.57 2-.82 3.99-.47 5.87.4 2.62 1.21 3.87.72 4.97-2.12.43-1.13.88-2.26 1.24-3.41 1.07-3.36 5.32-3.98 7.72-2.23 1.78 1.3 3.41 3.08 2.92 5.47-.36 1.71-1.54 3.25-2.4 4.84-.19.36-.66.56-.88.91-.22.35-.52.92-.38 1.17.19.37.73.73 1.15.77 1.4.13 2.82.12 4.23.15.22 0 .46-.08.67-.16 3.04-1.21 5.84-.68 8.46 1.18.21.13.47.27.97.57z"/><path d="M24 248.62h18.17c5.56 0 8.34 4.68 8.34 9.27s-2.78 9.35-8.34 9.35H24v-18.62zm-7.74-30.58v57.38h25.9c10.96 0 16.59-8.85 16.59-17.62 0-5.51-2.37-11.69-8.91-14.53 5.72-4.09 6.45-10.49 4.17-16.03-2.12-5.16-6.7-9.2-13.9-9.2H16.26zm7.74 7.69h16.12c8.99 0 8.83 14.57-.16 14.57H24v-14.57zm89.2 49.85h8.82l-23-59.31h-6.08l-23.07 59.31h8.94c1.81-4.85 4.68-11.84 6.9-16.92h20.61l6.88 16.92zm-17.14-45.7l7.06 21.02H88.83l7.23-21.02zm78.9 2.02c-1.47-10.72-10.63-15.37-19.45-15.37-6.62 0-13.49 2.63-17.33 7.77-2.45 3.29-3.43 7.2-3.11 10.94v-.08c.9 11.97 11.36 14.01 20.27 14.95 5.72.6 11.61 1.36 12.59 5.86.17.76.25 1.44.25 2.04 0 6.11-6.7 9.68-12.84 9.68-5.31 0-11.77-2.89-12.34-8.41v.34l-.08-1.27-8.34.17.08 1.61c1.06 10.62 11.77 16.05 20.6 16.05 10.3 0 21.25-6.62 21.25-18.09 0-1.19-.16-2.63-.41-3.9-2.21-9.51-11.94-11.63-19.78-12.65-6.13-.58-12.59-1.29-13-7.01-.16-1.9.25-3.73 1.39-5.25 2.29-3.04 6.54-4.39 10.38-4.47 4.99-.08 10.54 2.19 11.69 7.41l8.18-.32zm26.07 18.58h25.77v-8.62h-25.77v-15.73h26.34v-8.09h-34.22v57.03h34.3v-8.02h-26.42z" fill="#d8d800" fill-rule="evenodd" clip-rule="evenodd"/><path class="st1" d="M251.74 250.17h22.74v-8.34h-22.74v-15.7h25.69v-8.09h-33.5v56.55h7.81zm78.62 25.41h8.82l-23-59.31h-6.08l-23.07 59.31h8.94c1.81-4.85 4.68-11.84 6.9-16.92h20.61l6.88 16.92zm-17.14-45.7l7.06 21.02h-14.29l7.23-21.02zm38.24 16.91c0 8.12 3.3 15.49 8.26 20.74 5.02 5.04 12.05 8.19 19.81 8.19 13.32 0 23.79-8.51 27.06-21.74h-8.09c-2.94 8.88-10.3 13.86-18.97 13.86-5.47 0-10.46-2.3-14.06-6.15-3.6-3.85-5.92-9.05-5.92-14.91 0-6.03 2.31-11.22 5.92-15.08 3.6-3.85 8.58-6.28 14.06-6.28 8.42 0 15.45 4.44 18.47 13.23h8.18c-3.27-13.23-13.57-21.57-26.65-21.57-7.76 0-14.79 3.39-19.81 8.67-4.96 5.37-8.26 12.74-8.26 21.04zm94.61 28.05v-48.71h17.25v-8.17h-42.24v8.17h16.89v48.71zm31.48-28.44c0 8.43 3.41 16 8.65 21.37 5.23 5.2 12.47 8.35 20.35 8.35 8.07 0 15.42-3.15 20.73-8.35 5.15-5.37 8.5-12.95 8.5-21.37 0-8.43-3.35-16-8.5-21.18-5.31-5.12-12.65-8.45-20.73-8.45-7.88 0-15.11 3.32-20.35 8.45-5.24 5.18-8.65 12.75-8.65 21.18zm49.88 0c0 6.13-2.37 11.49-6.05 15.4-3.88 4-9.25 6.29-14.84 6.29a19.5 19.5 0 0 1-14.39-6.29 22.397 22.397 0 0 1-6.12-15.4c0-6.04 2.41-11.49 6.12-15.4 3.7-3.81 8.84-6.1 14.39-6.1 5.6 0 10.96 2.28 14.84 6.1 3.69 3.91 6.05 9.27 6.05 15.4zm35.93 3.26l21.43 24.94h10.71l-18.06-21.36c9.81-1.7 14.79-9.34 14.79-17.38 0-8.92-6.21-17.89-18.65-17.89h-20.84v56.64h7.73v-48.46h13.1c6.96 0 10.39 4.84 10.39 9.72 0 4.96-3.43 9.91-10.39 9.91h-10.22v3.88zM92.62 304.64l.84-1.76c-1.34-.73-2.88-1.11-4.66-1.11-1.67 0-3.12.36-4.35 1.04-1.23.69-2.17 1.67-2.83 2.94-.65 1.28-.98 2.77-.98 4.47 0 2.71.67 4.81 2.03 6.27 1.36 1.48 3.29 2.21 5.78 2.21 1.72 0 3.15-.25 4.34-.75v-1.87c-1.53.42-2.88.62-4.07.62-1.94 0-3.43-.56-4.48-1.68-1.04-1.12-1.56-2.72-1.56-4.79 0-1.99.53-3.58 1.62-4.73 1.09-1.15 2.57-1.74 4.44-1.74 1.29.01 2.59.31 3.88.88zm10.97.78c.95-1.09 2.34-1.65 4.18-1.65 1.81 0 3.18.56 4.12 1.65.93 1.09 1.4 2.69 1.4 4.81 0 2.15-.47 3.77-1.4 4.86-.94 1.09-2.32 1.64-4.13 1.64-1.82 0-3.21-.55-4.16-1.65-.95-1.09-1.42-2.71-1.42-4.84-.01-2.11.46-3.71 1.41-4.82zm9.73-1.38c-1.34-1.5-3.18-2.26-5.54-2.26-2.45 0-4.34.75-5.64 2.21-1.32 1.48-1.98 3.55-1.98 6.22 0 2.71.66 4.79 1.98 6.27 1.31 1.5 3.18 2.23 5.61 2.23 2.37 0 4.21-.75 5.55-2.26 1.34-1.51 2.01-3.58 2.01-6.21 0-2.64-.67-4.71-1.99-6.2zm22.73-2.26h-1.78v9.71c-.02.5 0 1.31.06 2.43l.09 2.01h-.09l-8.67-14.15h-2.15v16.94h1.76v-9.62c0-1.39-.06-2.91-.17-4.59h.09l8.69 14.21h2.17v-16.94zm17.63 9.59c-.67-.7-1.89-1.37-3.67-2-1.06-.36-1.85-.68-2.37-1-.51-.31-.87-.64-1.09-1.01-.22-.36-.33-.82-.33-1.4 0-.68.28-1.21.87-1.6.59-.39 1.4-.59 2.46-.59 1.32 0 2.68.29 4.09.85l.62-1.81a10.52 10.52 0 0 0-4.63-1.04c-1.61 0-2.9.39-3.87 1.14-.98.75-1.46 1.76-1.46 3.02 0 1.21.32 2.21 1.01 2.96.67.75 1.79 1.4 3.38 1.95 1.12.39 1.96.73 2.53 1.04.56.31.95.65 1.19 1.01.23.37.36.84.36 1.4 0 .78-.34 1.37-1 1.79-.67.43-1.67.64-2.98.64-.81 0-1.64-.08-2.45-.24-.83-.15-1.59-.39-2.28-.68v2.01c1.08.61 2.62.9 4.62.9 1.84 0 3.31-.41 4.38-1.21 1.07-.81 1.62-1.93 1.62-3.39.01-1.12-.33-2.02-1-2.74zm19.68-9.59v10.68c0 1.37-.39 2.43-1.15 3.16-.76.75-1.86 1.11-3.26 1.11-1.48 0-2.6-.36-3.37-1.09-.76-.73-1.14-1.79-1.14-3.16v-10.69h-1.9v10.77c0 1.93.55 3.44 1.64 4.53s2.65 1.64 4.65 1.64c2 0 3.57-.55 4.72-1.64 1.14-1.09 1.72-2.58 1.72-4.5v-10.8h-1.91zm20.06 16.94v-1.99h-7.27v-14.95h-1.92v16.94zm12.52-14.95h5.35v-1.99h-12.55v1.99h5.3v14.95h1.9zm14.89 7.97l2.01-5.31c.31-.9.57-1.73.74-2.47.26.98.53 1.81.79 2.47l1.98 5.31h-5.52zm10.24 6.98l-6.64-16.94h-1.65l-6.67 16.94h1.93l2.11-4.98h6.83l2.12 4.98h1.97zm19.34-16.94h-1.78v9.71c-.02.5 0 1.31.06 2.43l.09 2.01h-.09l-8.67-14.15h-2.15v16.94h1.76v-9.62c0-1.39-.06-2.91-.17-4.59h.09l8.69 14.21h2.17v-16.94zm20.22 2.86l.84-1.76c-1.34-.73-2.88-1.11-4.66-1.11-1.67 0-3.12.36-4.35 1.04a6.9 6.9 0 0 0-2.82 2.94c-.66 1.28-.98 2.77-.98 4.47 0 2.71.67 4.81 2.02 6.27 1.36 1.48 3.29 2.21 5.79 2.21 1.72 0 3.15-.25 4.34-.75v-1.87c-1.53.42-2.89.62-4.07.62-1.93 0-3.43-.56-4.47-1.68-1.04-1.12-1.56-2.72-1.56-4.79 0-1.99.53-3.58 1.62-4.73 1.09-1.15 2.57-1.74 4.44-1.74 1.27.01 2.57.31 3.86.88zm8.24-2.86h-2.1l5.5 10.46v6.48h1.93v-6.57l5.54-10.37h-2.07l-4.41 8.47zm33.5 8.97c1.4 0 2.45.23 3.13.7.69.47 1.04 1.2 1.04 2.18 0 1.07-.34 1.85-1.01 2.35-.69.5-1.68.75-3.01.75h-3.45v-5.98h3.3zm-3.28-6.98h2.84c1.43 0 2.49.2 3.17.57.65.38 1 1 1 1.84 0 .93-.31 1.6-.91 1.99-.59.39-1.57.58-2.93.58h-3.17v-4.98zm-1.92 14.95h5.75c1.78 0 3.18-.42 4.18-1.29 1-.86 1.49-2.06 1.49-3.6 0-2.29-1.26-3.66-3.75-4.11v-.11c1.04-.19 1.84-.61 2.38-1.25.55-.64.83-1.46.83-2.46 0-1.43-.5-2.47-1.47-3.13-.98-.65-2.57-1-4.75-1h-4.66v16.95zm19.4-16.94h-2.11l5.51 10.46v6.48h1.93v-6.57l5.54-10.37h-2.08l-4.41 8.47zm37.48 16.94v-1.99h-7.27v-14.95h-1.92v16.94zm16.69-1.99h-7.36v-5.98h6.92v-2h-6.92v-4.98h7.36v-1.99h-9.28v16.94h9.28zm17.17 1.99l5.68-14.99h.09c-.11 1.46-.16 2.83-.16 4.08v10.91h1.9v-16.94h-2.84l-5.34 13.96h-.09l-5.29-13.96H389v16.94h1.76v-10.77c0-1.62-.06-3.04-.15-4.23h.09l5.65 15.01h1.56zm19.2-13.3c.95-1.09 2.34-1.65 4.18-1.65 1.81 0 3.18.56 4.12 1.65.94 1.09 1.4 2.69 1.4 4.81 0 2.15-.47 3.77-1.4 4.86-.94 1.09-2.32 1.64-4.13 1.64-1.82 0-3.21-.55-4.16-1.65-.95-1.09-1.42-2.71-1.42-4.84-.01-2.11.46-3.71 1.41-4.82zm9.73-1.38c-1.34-1.5-3.18-2.26-5.54-2.26-2.45 0-4.33.75-5.64 2.21-1.32 1.48-1.98 3.55-1.98 6.22 0 2.71.66 4.79 1.98 6.27 1.31 1.5 3.18 2.23 5.61 2.23 2.37 0 4.21-.75 5.55-2.26 1.34-1.51 2.01-3.58 2.01-6.21 0-2.64-.67-4.71-1.99-6.2zm22.73-2.26h-1.77v9.71c-.02.5 0 1.31.06 2.43l.09 2.01h-.09l-8.67-14.15h-2.15v16.94h1.76v-9.62c0-1.39-.06-2.91-.17-4.59h.09l8.69 14.21h2.17v-16.94zm20.23 2.86l.84-1.76c-1.34-.73-2.89-1.11-4.66-1.11-1.67 0-3.12.36-4.35 1.04a6.9 6.9 0 0 0-2.82 2.94c-.65 1.28-.98 2.77-.98 4.47 0 2.71.67 4.81 2.03 6.27 1.36 1.48 3.29 2.21 5.78 2.21 1.72 0 3.15-.25 4.34-.75v-1.87c-1.53.42-2.88.62-4.07.62-1.93 0-3.43-.56-4.47-1.68-1.04-1.12-1.56-2.72-1.56-4.79 0-1.99.53-3.58 1.62-4.73 1.09-1.15 2.57-1.74 4.44-1.74 1.28.01 2.57.31 3.86.88zm10.97.78c.95-1.09 2.34-1.65 4.18-1.65 1.81 0 3.18.56 4.11 1.65.94 1.09 1.41 2.69 1.41 4.81 0 2.15-.47 3.77-1.41 4.86-.93 1.09-2.32 1.64-4.13 1.64-1.83 0-3.21-.55-4.16-1.65-.95-1.09-1.42-2.71-1.42-4.84 0-2.11.47-3.71 1.42-4.82zm9.73-1.38c-1.34-1.5-3.18-2.26-5.53-2.26-2.45 0-4.34.75-5.64 2.21-1.33 1.48-1.98 3.55-1.98 6.22 0 2.71.65 4.79 1.98 6.27 1.31 1.5 3.18 2.23 5.61 2.23 2.37 0 4.21-.75 5.55-2.26 1.34-1.51 2.01-3.58 2.01-6.21-.01-2.64-.67-4.71-2-6.2zm19.77 11.03c-1.17 1.11-2.91 1.65-5.22 1.65h-2.37v-12.95h2.82c2.15 0 3.79.54 4.88 1.62s1.64 2.66 1.64 4.76c0 2.18-.59 3.82-1.75 4.92zm1.61-11.09c-1.43-1.46-3.45-2.2-6.02-2.2h-5.1v16.94h4.6c2.79 0 4.92-.73 6.42-2.21s2.24-3.61 2.24-6.41c.01-2.62-.7-4.66-2.14-6.12zm19.73 12.75h-7.36v-5.98h6.92v-2h-6.92v-4.98h7.36v-1.99h-9.28v16.94h9.28z"/><ellipse class="st1" cx="306.1" cy="195.68" rx="291.37" ry="1.49"/><path class="st1" d="M60.25 315.03c0-2.64-1.39-4.2-4.16-4.67v-.24c2.77-.47 4.16-2.02 4.16-4.67v-5.43c0-2.36 1.42-3.58 4.25-3.67v-2.55c-2.26 0-4.07.53-5.41 1.58-1.34 1.06-2 2.54-2 4.43v5.64c0 1.17-.36 2.06-1.09 2.61-.72.57-1.9.87-3.51.88v2.6c1.49 0 2.64.28 3.42.82.78.56 1.18 1.47 1.18 2.73v5.58c0 1.88.63 3.35 1.93 4.41 1.3 1.03 3.12 1.57 5.49 1.6v-2.58c-1.4-.03-2.46-.32-3.18-.87-.72-.57-1.07-1.48-1.07-2.73v-5.47zm493.71 0c0-2.64 1.39-4.2 4.16-4.67v-.24c-2.77-.47-4.16-2.02-4.16-4.67v-5.43c0-2.36-1.42-3.58-4.25-3.67v-2.55c2.26 0 4.07.53 5.41 1.58 1.34 1.06 2 2.54 2 4.43v5.64c0 1.17.36 2.06 1.09 2.61.72.57 1.9.87 3.51.88v2.6c-1.49 0-2.64.28-3.42.82-.79.56-1.18 1.47-1.18 2.73v5.58c0 1.88-.63 3.35-1.93 4.41-1.3 1.03-3.12 1.57-5.49 1.6v-2.58c1.4-.03 2.46-.32 3.18-.87.72-.57 1.07-1.48 1.07-2.73v-5.47z"/></svg>