<svg xmlns="http://www.w3.org/2000/svg" xmlns:xlink="http://www.w3.org/1999/xlink" width="100" height="100" viewBox="0 0 100 100"><svg fill="#1A1A1A" xmlns="http://www.w3.org/2000/svg" viewBox="0 0 100 100" transform="matrix(.69 0 0 .69 15.5 15.5)"><path d="M51.4 18c0-7.6 6-13.7 13.7-13.7s13.7 6 13.7 13.7-6 13.7-13.7 13.7S51.4 25.6 51.4 18zm3.9 0c0 5.5 4.3 9.8 9.8 9.8 5.5 0 9.8-4.3 9.8-9.8S70.5 8.2 65 8.2c-5.4 0-9.7 4.3-9.7 9.8z"/><path d="M20.3 72.6V51.5l11.2 16.3-3.1 2.3-4.2-6.9v9.5c0 11.9 7.6 19.5 19.5 19.5s19.5-7.6 19.5-19.5v-43H67v42.9c0 14-9.3 23.4-23.4 23.4s-23.3-9.3-23.3-23.4z"/></svg></svg>