<svg xmlns="http://www.w3.org/2000/svg" xmlns:xlink="http://www.w3.org/1999/xlink" width="100" height="100" viewBox="0 0 100 100"><svg fill="#1A1A1A" xmlns="http://www.w3.org/2000/svg" viewBox="0 0 100 100" transform="matrix(.69 0 0 .69 15.5 15.5)"><path d="M86.342 61.301a37.93 37.93 0 001.713-11.303c0-4.435-.801-8.679-2.203-12.642 2.6-1.367 4.389-4.066 4.389-7.209a8.18 8.18 0 00-8.18-8.18 8.11 8.11 0 00-4.773 1.562 38.007 38.007 0 00-19.141-10.684C57.967 8.485 54.404 5 50 5s-7.968 3.489-8.146 7.847c-7.419 1.626-14.026 5.416-19.138 10.684a8.115 8.115 0 00-4.774-1.562 8.18 8.18 0 00-8.181 8.18c0 3.143 1.791 5.838 4.389 7.209-1.401 3.963-2.204 8.207-2.204 12.642 0 3.935.601 7.731 1.713 11.303-1.173.723-2.197 1.72-2.903 3.015a8.181 8.181 0 003.268 11.098c2.508 1.37 5.413 1.279 7.761.03 5.228 5.795 12.183 9.983 20.07 11.712C42.035 91.515 45.598 95 50 95c4.405 0 7.963-3.485 8.147-7.845 7.889-1.729 14.842-5.917 20.07-11.712a8.155 8.155 0 007.76-.03 8.18 8.18 0 003.268-11.098c-.708-1.294-1.729-2.292-2.903-3.014zm-.6-11.303c0 3.599-.549 7.071-1.543 10.351a8.164 8.164 0 00-6.053.696 8.12 8.12 0 00-3.152 3.113l-17.51-10.873a8.177 8.177 0 00.695-3.287 8.11 8.11 0 00-.697-3.281l18.309-11.371c1.5 1.807 3.738 2.983 6.27 2.983.559 0 1.1-.057 1.625-.162 1.31 3.709 2.056 7.68 2.056 11.831zM75.631 25.145c-1.08 1.388-1.748 3.108-1.748 5.003 0 1.152.244 2.246.674 3.24L56.238 44.765a8.093 8.093 0 00-5.08-2.828V21.245a8.143 8.143 0 006.75-6.075 35.675 35.675 0 0117.723 9.975zM42.092 15.17a8.14 8.14 0 006.751 6.075v20.691a8.107 8.107 0 00-5.08 2.826L25.449 33.388a8.121 8.121 0 00.673-3.24c0-1.895-.67-3.617-1.753-5.003a35.688 35.688 0 0117.723-9.975zM14.258 49.998c0-4.151.748-8.122 2.055-11.831a8.323 8.323 0 001.628.162c2.536 0 4.773-1.177 6.272-2.987L42.52 46.71a8.142 8.142 0 00-.7 3.288c0 1.172.254 2.281.698 3.289L25.009 64.162c-.727-1.266-1.778-2.367-3.156-3.117a8.159 8.159 0 00-6.054-.696 35.626 35.626 0 01-1.541-10.351zm9.378 24.052c.568-.556 1.089-1.172 1.488-1.904 1.006-1.846 1.197-3.899.747-5.796l17.892-11.114a8.092 8.092 0 005.081 2.827v20.692a8.148 8.148 0 00-6.753 6.074c-7.233-1.641-13.619-5.482-18.455-10.779zm34.272 10.779a8.141 8.141 0 00-6.75-6.074V58.062a8.096 8.096 0 005.082-2.83l17.889 11.113c-.451 1.896-.258 3.954.748 5.8.4.732.916 1.349 1.486 1.904-4.836 5.298-11.222 9.139-18.455 10.78z"/></svg></svg>